<svg width="148" height="37" viewBox="0 0 148 37" fill="none" xmlns="http://www.w3.org/2000/svg">
<path d="M15.876 6.356C14.58 6.248 13.32 6.104 12.024 6.032C12.06 5.528 12.132 5.024 12.168 4.556C12.24 3.512 11.232 2.612 10.188 2.612C9 2.612 8.28 3.512 8.208 4.556L8.1 6.068C6.516 6.176 4.968 6.356 3.348 6.464C0.828 6.608 0.828 10.604 3.348 10.46C4.86 10.388 6.264 10.172 7.74 10.028C7.308 15.752 7.056 21.512 7.416 27.128C7.596 29.72 11.484 29.756 11.376 27.128C11.016 21.476 11.304 15.68 11.7 9.956C13.104 10.028 14.508 10.172 15.876 10.316C16.92 10.424 17.784 9.344 17.784 8.3C17.784 7.184 16.92 6.428 15.876 6.356ZM10.404 12.224C10.404 12.476 10.368 12.692 10.332 13.016C10.296 13.304 10.296 13.664 10.26 14.024L10.152 16.544C10.116 17.444 10.116 18.452 10.08 19.46C10.044 23.384 10.116 27.308 10.116 27.308C10.116 27.452 9.972 27.596 9.792 27.596C9.612 27.596 9.504 27.452 9.504 27.308V27.272C9.504 27.272 9.576 23.384 9.792 19.424C9.828 18.452 9.864 17.444 9.936 16.508C10.008 15.608 10.08 14.744 10.152 14.024L10.26 13.016C10.296 12.656 10.368 12.44 10.368 12.224C10.44 11.792 10.44 11.576 10.44 11.576C10.44 11.576 10.44 11.792 10.404 12.224ZM23.7305 7.976C23.8745 13.772 23.9825 19.568 24.0905 25.364L23.2625 25.58C20.6705 26.264 21.7865 30.332 24.3785 29.648L29.7065 28.244C32.3345 27.56 31.2185 23.492 28.5905 24.176L28.2665 24.284C28.1585 18.488 28.0145 12.692 27.9065 6.86C28.9505 6.536 29.5625 5.42 29.2745 4.34C28.9865 3.224 27.7985 2.54 26.7185 2.864L23.2625 3.836C22.1825 4.16 21.4985 5.312 21.8225 6.428C22.0385 7.292 22.8665 7.904 23.7305 7.976ZM26.7545 7.868C26.8985 7.868 26.9705 7.94 26.9705 8.048L27.0785 21.692L26.5745 8.084C26.5745 7.976 26.6465 7.868 26.7545 7.868ZM51.0823 1.064C49.8943 0.739999 48.9223 1.46 48.5263 2.504C47.0143 6.356 46.1143 10.46 45.4663 14.564C45.2863 15.572 45.1783 16.616 45.0343 17.66C44.7463 16.724 44.4583 15.788 44.2423 14.816C43.4503 12.008 42.7303 9.164 42.1543 6.284C41.7223 4.34 38.5183 4.304 38.1583 6.284C37.0783 11.9 36.6103 17.66 36.0703 23.312C35.7463 26.948 35.4583 30.62 35.1703 34.256C35.0983 35.372 36.1783 36.308 37.2223 36.308C38.4463 36.308 39.2383 35.372 39.2743 34.256C39.5263 30.764 39.8503 27.308 40.1383 23.816C40.3543 21.728 40.5343 19.676 40.7143 17.66C41.2183 19.352 41.7583 21.044 42.3703 22.736C43.0183 24.572 43.7743 26.588 44.9623 28.172C45.5383 28.928 46.3303 29.396 47.3023 29.144C48.1303 28.892 48.8863 28.064 48.8143 27.164C48.4903 23.204 48.8863 19.244 49.4983 15.356C50.1463 11.36 51.0463 7.364 52.5223 3.62C52.9183 2.54 52.0543 1.352 51.0823 1.064ZM51.6583 3.62C51.6223 3.764 51.5503 3.944 51.4783 4.16C51.0103 5.744 50.3983 7.868 49.8583 9.992C49.2823 12.116 48.7783 14.276 48.4903 15.896C48.3823 16.292 48.3103 16.688 48.2743 17.012L48.1663 17.84C48.1663 17.624 48.1663 17.336 48.2383 17.012C48.2743 16.652 48.3103 16.292 48.3823 15.86C48.6343 14.24 49.0663 12.08 49.5703 9.92C50.0743 7.76 50.5783 5.636 51.0103 4.016C51.0823 3.8 51.1183 3.656 51.1543 3.476C51.1903 3.296 51.1903 3.116 51.1903 3.008C51.1903 2.756 51.0823 2.612 50.9383 2.54C50.7583 2.468 50.6143 2.432 50.5063 2.432H50.3623C50.1823 2.468 50.0383 2.324 50.0023 2.18C50.0023 2 50.1463 1.856 50.3263 1.82H50.3623C50.3983 1.82 50.4703 1.82 50.5423 1.856C50.6863 1.856 50.9383 1.892 51.1903 2.036C51.3343 2.108 51.4783 2.216 51.5863 2.396C51.6943 2.576 51.7663 2.792 51.7663 2.972C51.7663 3.188 51.7303 3.404 51.6583 3.62ZM50.0023 25.184C49.8583 25.184 49.7143 25.364 49.7503 25.544L49.8583 26.336C49.8583 26.516 50.0023 26.66 50.1823 26.66C50.3623 26.624 50.4703 26.48 50.4703 26.3L50.3623 25.436C50.3623 25.256 50.1823 25.148 50.0023 25.184ZM50.1823 27.02C50.0023 26.984 49.8583 27.128 49.8223 27.308C49.6063 29.648 47.6263 29.828 47.5543 29.828C47.4103 29.864 47.2663 30.008 47.3023 30.188C47.3023 30.368 47.4103 30.44 47.5903 30.44H47.6263C47.6263 30.44 48.2383 30.368 48.9223 29.972C49.5343 29.612 50.2903 28.856 50.4343 27.344C50.4343 27.2 50.3623 27.02 50.1823 27.02ZM70.6818 4.628C68.3778 7.184 66.6138 10.28 65.1018 13.304C64.9938 13.448 64.9218 13.592 64.8498 13.772C63.5178 10.604 62.1858 7.436 60.8898 4.304C60.4218 3.224 59.4498 2.432 58.2258 2.792C57.1818 3.08 56.2458 4.376 56.7138 5.456C58.6218 10.028 60.5658 14.6 62.4738 19.172C60.0618 25.472 58.6218 27.704 57.9018 34.04C57.7578 35.228 58.9818 36.2 60.0978 36.2C61.3578 36.2 62.1138 35.228 62.2578 34.04C63.0858 25.94 65.2098 22.664 68.8098 15.5C69.8898 13.376 71.0778 11.324 72.4458 9.38L73.0938 8.48C73.1298 8.48 73.1298 8.444 73.1658 8.408C73.2018 8.336 73.2378 8.3 73.3098 8.228L73.7418 7.688C75.6138 5.636 72.5538 2.576 70.6818 4.628ZM73.0938 6.212C73.0938 6.428 73.0578 6.644 72.9498 6.86C72.8058 7.292 72.5178 7.688 72.2298 8.084C71.6898 8.948 71.0418 9.92 70.3578 10.964C69.6738 12.008 68.9898 13.16 68.3058 14.312C67.6578 15.464 67.0458 16.652 66.4698 17.768C66.2178 18.344 65.9298 18.884 65.7138 19.424C65.4978 19.928 65.2818 20.432 65.1018 20.9L64.5978 22.196C64.4898 22.592 64.3818 22.916 64.2738 23.204L64.0938 23.852C64.1298 23.708 64.1658 23.492 64.2738 23.204C64.3458 22.916 64.4178 22.556 64.5618 22.16C64.6698 21.8 64.8138 21.332 64.9938 20.864L65.5698 19.352C65.7858 18.812 66.0378 18.272 66.2898 17.696C66.7938 16.544 67.4058 15.356 68.0178 14.168C68.6658 12.98 69.3498 11.792 69.9618 10.712C70.6098 9.632 71.2578 8.66 71.7618 7.796C72.0498 7.364 72.3018 7.004 72.4098 6.644C72.5178 6.32 72.5178 6.032 72.4458 5.852C72.3738 5.636 72.2298 5.528 72.1218 5.456C72.0138 5.42 71.9778 5.384 71.9778 5.384C71.7978 5.312 71.7258 5.132 71.7978 4.988C71.8698 4.808 72.0498 4.736 72.2298 4.772C72.2298 4.808 72.3378 4.844 72.4818 4.952C72.6618 5.06 72.8778 5.24 73.0218 5.6C73.0938 5.78 73.1298 5.996 73.0938 6.212ZM95.5313 0.451998C94.4873 0.127998 93.5873 0.667998 93.1553 1.604C90.3113 7.832 88.8353 14.456 88.1873 21.224C87.7913 20.108 87.5033 18.956 87.4313 17.768C87.3233 16.148 84.8753 15.824 84.1193 17.12C83.3273 18.344 82.6793 19.676 82.1393 20.972C81.6713 15.824 82.2833 10.532 83.8673 5.6C84.5873 3.332 81.0953 2.108 80.3753 4.376C78.5753 9.92 78.0353 15.752 78.4313 21.548C78.6473 23.996 78.9713 26.552 79.6913 28.928C79.9433 29.72 80.4833 30.368 81.3473 30.44C82.1753 30.476 83.0753 29.972 83.2913 29.18C83.7593 27.308 84.3353 25.364 85.0913 23.456C85.9193 25.292 87.0353 26.948 88.2593 28.388C89.2673 29.54 91.4273 28.928 91.4993 27.308C91.7873 18.812 93.1193 10.568 96.6473 2.828C97.0433 1.928 96.3953 0.775999 95.5313 0.451998ZM93.1553 10.496C93.0473 10.964 92.8673 11.72 92.6873 12.62C92.4713 13.484 92.2553 14.492 92.1113 15.608C92.0033 16.148 91.8953 16.724 91.8233 17.3C91.7153 17.84 91.6433 18.452 91.5353 19.028C91.3913 20.216 91.3193 21.404 91.2473 22.52L91.1393 24.14C91.1393 24.644 91.1033 25.112 91.0313 25.58C90.9953 26.012 90.9233 26.444 90.8513 26.804C90.7793 27.164 90.6713 27.524 90.4553 27.776C90.3473 27.92 90.2393 28.028 90.1313 28.1C89.9873 28.136 89.8793 28.172 89.8073 28.208C89.6993 28.208 89.6273 28.208 89.5913 28.208H89.5553C89.3753 28.244 89.2673 28.1 89.2313 27.956C89.2313 27.776 89.3393 27.668 89.5193 27.632C89.5193 27.632 89.5553 27.632 89.5913 27.632H89.6993C89.8073 27.596 89.9513 27.596 90.0593 27.488C90.1673 27.308 90.2753 27.02 90.3473 26.696C90.4193 26.372 90.4913 25.94 90.5273 25.544C90.5993 25.076 90.6713 24.608 90.7073 24.104C90.7793 23.6 90.8153 23.06 90.8873 22.52C90.9593 21.368 91.1033 20.18 91.2473 18.992L91.5713 17.228C91.6793 16.688 91.7873 16.112 91.9313 15.572C92.1113 14.456 92.3633 13.448 92.5793 12.584C92.8313 11.72 93.0113 10.964 93.1193 10.496L93.3353 9.704C93.3353 9.704 93.2633 9.956 93.1553 10.496ZM95.0993 10.388C94.9553 10.316 94.7753 10.388 94.7033 10.568C93.7313 12.62 93.1553 15.572 92.8673 17.696V17.84C92.8313 18.02 92.9393 18.2 93.0833 18.2H93.1553C93.2993 18.2 93.4433 18.092 93.4433 17.948C93.4793 17.876 93.4793 17.804 93.4793 17.768C93.8033 15.716 94.3073 12.8 95.2433 10.82C95.3153 10.676 95.2433 10.46 95.0993 10.388ZM93.0473 18.812C92.8673 18.776 92.7233 18.92 92.6873 19.1C92.5433 20.324 92.5073 21.188 92.5073 21.188C92.4713 21.368 92.6153 21.512 92.7953 21.548H92.8313C92.9753 21.548 93.0833 21.404 93.1193 21.224C93.1193 21.224 93.1553 20.396 93.2993 19.172C93.3353 18.992 93.1913 18.812 93.0473 18.812ZM102.687 7.976C102.831 13.772 102.939 19.568 103.047 25.364L102.219 25.58C99.6272 26.264 100.743 30.332 103.335 29.648L108.663 28.244C111.291 27.56 110.175 23.492 107.547 24.176L107.223 24.284C107.115 18.488 106.971 12.692 106.863 6.86C107.907 6.536 108.519 5.42 108.231 4.34C107.943 3.224 106.755 2.54 105.675 2.864L102.219 3.836C101.139 4.16 100.455 5.312 100.779 6.428C100.995 7.292 101.823 7.904 102.687 7.976ZM105.711 7.868C105.855 7.868 105.927 7.94 105.927 8.048L106.035 21.692L105.531 8.084C105.531 7.976 105.603 7.868 105.711 7.868ZM130.435 20.936C127.375 20.828 124.567 19.604 122.083 17.84C121.867 17.66 121.615 17.48 121.327 17.264C125.287 14.204 128.599 10.064 129.679 5.024C130.723 2.612 126.511 1.46 125.719 4.196C124.603 8.048 121.759 11.396 118.555 13.844C118.555 10.784 118.519 7.724 118.519 4.664C118.483 1.856 114.127 1.856 114.127 4.664C114.199 12.08 114.235 19.46 114.271 26.876C114.307 29.72 118.663 29.72 118.663 26.876C118.627 24.86 118.627 22.808 118.627 20.792C121.939 23.492 126.295 25.148 130.435 25.328C133.279 25.436 133.279 21.044 130.435 20.936ZM122.083 14.96C122.227 14.852 122.407 14.708 122.587 14.528C122.767 14.384 122.947 14.168 123.163 13.952L123.523 13.592C123.631 13.484 123.703 13.34 123.811 13.232L124.171 12.836C124.279 12.692 124.387 12.548 124.495 12.368C124.639 12.224 124.747 12.08 124.855 11.9C124.963 11.756 125.071 11.576 125.215 11.432C125.323 11.252 125.431 11.072 125.539 10.928C125.647 10.748 125.755 10.568 125.863 10.424L126.475 9.344C126.619 9.02 126.799 8.66 126.943 8.3L127.411 7.328C127.555 7.004 127.663 6.68 127.771 6.392C127.987 5.816 128.131 5.348 128.239 5.024C128.275 4.844 128.311 4.7 128.347 4.628C128.383 4.556 128.383 4.52 128.383 4.52C128.419 4.34 128.599 4.232 128.779 4.268C128.959 4.304 129.067 4.484 129.031 4.628V4.664C129.031 4.664 128.995 4.7 128.995 4.808L128.851 5.204C128.707 5.564 128.527 6.032 128.275 6.608C128.167 6.896 128.023 7.22 127.879 7.508C127.735 7.832 127.555 8.156 127.375 8.516C127.159 8.84 126.979 9.2 126.763 9.56C126.547 9.92 126.367 10.28 126.151 10.568C126.007 10.748 125.899 10.928 125.791 11.072C125.683 11.252 125.539 11.396 125.431 11.576C125.287 11.756 125.179 11.9 125.071 12.044L124.675 12.512C124.531 12.656 124.423 12.8 124.315 12.944C124.171 13.088 124.027 13.232 123.919 13.304C123.811 13.448 123.667 13.556 123.595 13.7C123.487 13.808 123.343 13.916 123.235 14.024L122.623 14.6C122.407 14.744 122.263 14.888 122.119 14.996L121.651 15.356C121.651 15.356 121.831 15.212 122.083 14.96ZM127.051 13.304C126.943 13.448 126.979 13.664 127.123 13.772C127.195 13.808 127.267 13.844 127.339 13.844C127.411 13.844 127.519 13.808 127.591 13.736C128.851 12.224 130.363 9.992 130.543 8.12C130.579 7.94 130.435 7.76 130.255 7.76C130.075 7.724 129.931 7.868 129.895 8.048C129.715 9.776 128.275 11.864 127.051 13.304ZM126.403 14.132C125.719 14.924 125.179 15.428 125.179 15.428C125.035 15.572 125.035 15.788 125.179 15.932C125.251 15.968 125.323 16.004 125.395 16.004C125.503 16.004 125.575 15.968 125.647 15.932C125.647 15.896 126.187 15.392 126.871 14.564C126.979 14.456 126.979 14.24 126.835 14.096C126.691 13.988 126.511 13.988 126.403 14.132ZM138.492 7.976C138.636 13.772 138.744 19.568 138.852 25.364L138.024 25.58C135.432 26.264 136.548 30.332 139.14 29.648L144.468 28.244C147.096 27.56 145.98 23.492 143.352 24.176L143.028 24.284C142.92 18.488 142.776 12.692 142.668 6.86C143.712 6.536 144.324 5.42 144.036 4.34C143.748 3.224 142.56 2.54 141.48 2.864L138.024 3.836C136.944 4.16 136.26 5.312 136.584 6.428C136.8 7.292 137.628 7.904 138.492 7.976ZM141.516 7.868C141.66 7.868 141.732 7.94 141.732 8.048L141.84 21.692L141.336 8.084C141.336 7.976 141.408 7.868 141.516 7.868Z" fill="#1E1E1E"/>
</svg>
